<?xml version="1.0" standalone="no"?>
<!DOCTYPE svg PUBLIC "-//W3C//DTD SVG 20010904//EN"
 "http://www.w3.org/TR/2001/REC-SVG-20010904/DTD/svg10.dtd">
<svg version="1.0" xmlns="http://www.w3.org/2000/svg"
 width="1000.000000pt" height="1000.000000pt" viewBox="0 0 1000.000000 1000.000000"
 preserveAspectRatio="xMidYMid meet">
<metadata>
Created by potrace 1.14, written by Peter Selinger 2001-2017
</metadata>
<g transform="translate(0.000000,1000.000000) scale(0.100000,-0.100000)"
fill="#000000" stroke="none">
<path d="M3217 7692 c-97 -97 -177 -182 -177 -187 0 -6 440 -450 978 -988
l977 -977 978 978 c537 537 977 982 977 987 0 6 -80 91 -179 189 l-178 178
-793 -796 c-436 -438 -798 -796 -805 -796 -7 0 -368 358 -804 795 -435 437
-792 795 -794 795 -1 0 -82 -80 -180 -178z"/>
<path d="M2458 6926 l-368 -374 0 -1322 0 -1322 258 -276 257 -276 3 1460 2
1459 130 130 130 130 400 -400 400 -400 0 -1075 0 -1075 260 -260 260 -260 0
1075 0 1075 403 -403 402 -402 403 402 402 403 0 -1075 0 -1075 260 260 260
260 0 1075 0 1075 400 400 400 400 130 -130 130 -130 2 -1459 3 -1460 258 276
257 276 -1 1324 0 1323 -369 375 -370 375 -1082 -1083 -1083 -1082 -1080 1080
c-594 594 -1082 1080 -1085 1080 -3 0 -170 -168 -372 -374z"/>
<path d="M2880 4660 l0 -1475 348 -348 347 -347 200 200 200 200 -288 288
-287 287 0 1075 0 1075 -260 260 -260 260 0 -1475z"/>
<path d="M6848 5873 l-258 -258 0 -1075 0 -1075 -287 -287 -288 -288 200 -200
200 -200 348 348 347 347 -2 1473 -3 1472 -257 -257z"/>
</g>
</svg>
